<svg id="e1TxMyDcdJa1" xmlns="http://www.w3.org/2000/svg" xmlns:xlink="http://www.w3.org/1999/xlink" viewBox="0 0 300 300" shape-rendering="geometricPrecision" text-rendering="geometricPrecision"><path d="M156.51336,245.8553c-37.32976,0-68.41954-25.32223-75.19176-58.83248-1.76571-6.09193-2.73629-12.73478-2.73629-19.68817c0-26.64782,14.25488-48.73471,32.88845-52.7314c3.89721-2.69154,8.07275-5.04282,12.47801-7.00776c14.99754-15.35365,42.89908-15.18726,66.75566-.51947c9.59092,4.32367,17.8509,10.92804,24.0265,19.08783c11.43507,12.67906,18.34031,29.13822,18.34032,47.12601v.00001c0,40.07678-34.27748,72.56544-76.56089,72.56544v-.00001Z" transform="matrix(1.616992 0 0 1.680586-96.808737-131.969111)" fill="#f7931e" stroke-width="0.6"/><path d="M123.95177,114.603251q-4.849554-27.15669,10.599338-34.152415t-10.599338,34.152415Z" transform="matrix(1.616992 0 0 1.680586-96.99163-116.41643)" fill="#30a755" stroke-width="0.6"/><rect width="7.547846" height="23.117296" rx="0" ry="0" transform="matrix(1.422744-.768415 1.144604 2.119268 75.213011 31.407775)" fill="#30a755" stroke-width="0"/><path d="M119.669764,122.284326q7.872356,0,15.464321-7.681075l14.865914,23.793338-30.330237,3.243738q-7.872357-19.356002.000002-19.356001Z" transform="matrix(1.616992 0 0 1.680586-102.818458-125.990387)" fill="#f7931e" stroke-width="0.6"/><path d="" transform="translate(-.663009-15.587175)" fill="none" stroke-width="0.6"/></svg>
